<svg xmlns="http://www.w3.org/2000/svg" viewBox="0 0 600 200" width="600" height="200" role="img">
  <defs>
    <linearGradient id="fundo" x1="0" y1="0" x2="1" y2="1">
      <stop offset="0" stop-color="#120a06"/>
      <stop offset="0.55" stop-color="#3b1d10"/>
      <stop offset="1" stop-color="#1a0d07"/>
    </linearGradient>
    <radialGradient id="brilho" cx="0.78" cy="0.5" r="0.6">
      <stop offset="0" stop-color="#d9783f" stop-opacity="0.35"/>
      <stop offset="1" stop-color="#d9783f" stop-opacity="0"/>
    </radialGradient>
  </defs>
  <rect width="600" height="200" fill="url(#fundo)"/>
  <g fill="#f5e6cf" opacity="0.55"><circle cx="126.1" cy="173.3" r="1.33"/><circle cx="449.9" cy="101.2" r="0.84"/><circle cx="239.5" cy="91.5" r="0.57"/><circle cx="112.0" cy="171.2" r="1.06"/><circle cx="358.1" cy="126.8" r="0.94"/><circle cx="144.7" cy="85.0" r="0.62"/><circle cx="86.7" cy="160.8" r="0.49"/><circle cx="260.5" cy="138.2" r="1.33"/><circle cx="64.9" cy="40.6" r="1.24"/><circle cx="393.8" cy="90.7" r="1.32"/><circle cx="93.7" cy="148.7" r="0.69"/><circle cx="107.6" cy="71.7" r="1.18"/><circle cx="199.3" cy="10.0" r="1.45"/><circle cx="448.4" cy="148.3" r="1.21"/><circle cx="174.3" cy="78.1" r="0.58"/><circle cx="491.1" cy="92.8" r="1.25"/><circle cx="159.7" cy="64.3" r="0.81"/><circle cx="546.5" cy="27.2" r="0.67"/><circle cx="510.6" cy="195.0" r="0.95"/><circle cx="318.4" cy="51.4" r="0.40"/><circle cx="279.2" cy="73.3" r="0.89"/><circle cx="271.9" cy="181.3" r="0.80"/><circle cx="544.3" cy="167.5" r="1.39"/><circle cx="599.7" cy="81.1" r="1.48"/><circle cx="127.8" cy="38.3" r="0.46"/><circle cx="103.4" cy="61.6" r="0.54"/><circle cx="200.2" cy="110.6" r="1.00"/><circle cx="42.3" cy="145.3" r="1.29"/><circle cx="108.8" cy="78.4" r="0.60"/><circle cx="559.5" cy="171.6" r="1.31"/><circle cx="217.5" cy="145.6" r="0.76"/><circle cx="260.0" cy="38.9" r="0.57"/><circle cx="568.6" cy="58.1" r="1.22"/><circle cx="320.5" cy="89.1" r="1.26"/><circle cx="105.1" cy="138.3" r="0.57"/><circle cx="598.2" cy="129.7" r="0.57"/><circle cx="482.4" cy="48.5" r="1.35"/><circle cx="319.3" cy="161.7" r="0.81"/><circle cx="340.8" cy="119.0" r="1.45"/><circle cx="7.5" cy="189.8" r="0.98"/><circle cx="200.8" cy="158.4" r="1.28"/><circle cx="356.7" cy="161.4" r="1.33"/><circle cx="124.7" cy="125.1" r="1.43"/><circle cx="560.9" cy="1.9" r="1.09"/><circle cx="388.6" cy="126.9" r="0.56"/><circle cx="482.2" cy="22.0" r="0.82"/><circle cx="14.4" cy="138.3" r="1.38"/><circle cx="40.9" cy="176.5" r="1.40"/><circle cx="510.8" cy="4.6" r="0.60"/><circle cx="39.4" cy="9.5" r="1.43"/><circle cx="415.5" cy="5.1" r="0.81"/><circle cx="473.6" cy="19.6" r="1.36"/><circle cx="38.1" cy="141.6" r="1.24"/><circle cx="420.7" cy="35.4" r="0.40"/><circle cx="597.1" cy="71.6" r="1.09"/><circle cx="320.2" cy="110.9" r="1.41"/><circle cx="279.2" cy="179.7" r="0.88"/><circle cx="85.4" cy="89.4" r="1.45"/><circle cx="31.7" cy="36.1" r="0.74"/><circle cx="146.8" cy="124.7" r="0.69"/><circle cx="146.6" cy="196.8" r="0.83"/><circle cx="276.9" cy="41.7" r="0.94"/><circle cx="162.2" cy="178.9" r="1.34"/><circle cx="287.8" cy="60.9" r="1.00"/><circle cx="429.0" cy="196.7" r="0.69"/><circle cx="483.0" cy="146.9" r="1.40"/><circle cx="341.6" cy="3.4" r="1.00"/><circle cx="463.8" cy="174.6" r="1.08"/><circle cx="137.5" cy="118.5" r="0.50"/><circle cx="310.0" cy="64.3" r="1.14"/></g>
  <rect width="600" height="200" fill="url(#brilho)"/>
  <g fill="none" stroke="#f5e6cf" stroke-width="3" stroke-linecap="round" opacity="0.9">
    <circle cx="470" cy="100" r="16"/>
    <path d="M470 66 A34 34 0 0 1 504 100"/>
    <path d="M470 134 A34 34 0 0 1 436 100"/>
    <path d="M470 52 A48 48 0 0 1 518 100"/>
    <path d="M470 148 A48 48 0 0 1 422 100"/>
  </g>
  <rect x="0" y="196" width="600" height="4" fill="#e8c547"/>
</svg>
